<svg id="Warstwa_1" enable-background="new 0 0 283.46 283.46" height="283.46" viewBox="0 0 283.46 283.46" width="283.46" xmlns="http://www.w3.org/2000/svg"><g><path d="m2.835 48.376h277.794v186.712h-277.794z" fill="#d6d4d1"/><g><path d="m5.149 50.658h273.236v182.156h-273.236z" fill="#b22034"/><g fill="#fff"><path d="m5.149 64.661h273.236v14.002h-273.236z"/><path d="m5.149 92.666h273.236v14.002h-273.236z"/><path d="m5.149 120.67h273.236v14.002h-273.236z"/><path d="m5.149 148.675h273.236v14.002h-273.236z"/><path d="m5.149 176.68h273.236v14.002h-273.236z"/><path d="m5.149 204.685h273.236v14.002h-273.236z"/></g><path d="m5.149 50.658h136.619v98.018h-136.619z" fill="#3e3c6f"/><g fill="#fff"><path d="m14.076 62.551-1.224 3.773c-.008.008 0 .031.016.039s.031.008.047 0l3.201-2.322 3.216 2.322s.008.008.016.008c.023.008.04-.016.04-.039 0-.008 0-.016 0-.016l-1.232-3.765 3.216-2.322c.008-.016.016-.031.008-.047-.008-.023-.016-.031-.039-.031h-3.954l-1.231-3.766c-.008-.031-.063-.031-.079 0l-1.216 3.765h-3.961c-.016 0-.039.008-.047.031 0 .016.008.031.016.047z"/><path d="m36.551 62.551-1.224 3.773c0 .008.008.031.016.039.016.008.039.008.047 0l3.208-2.322 3.201 2.322c.008.008.016.008.031.008.016 0 .031-.016.031-.039 0-.008 0-.016 0-.016l-1.224-3.765 3.2-2.322c.024-.016.032-.031.024-.047-.016-.023-.024-.031-.04-.031h-3.96l-1.232-3.766c-.008-.031-.063-.031-.071 0l-1.231 3.766h-3.961c-.008 0-.023.008-.039.031 0 .016 0 .031.023.047z"/><path d="m59.033 62.551-1.232 3.773c0 .008 0 .031.016.039s.04.008.047 0l3.208-2.322 3.201 2.322c.008.008.023.008.031.008.016 0 .04-.016.04-.039 0-.008 0-.016 0-.016l-1.232-3.765 3.208-2.322c.016-.016.023-.031.016-.047-.008-.023-.016-.031-.039-.031h-3.961l-1.224-3.766c-.016-.031-.071-.031-.079 0l-1.231 3.766h-3.961c-.016 0-.024.008-.032.031 0 .016 0 .031.016.047z"/><path d="m81.507 62.551-1.232 3.773c0 .008.008.031.024.039.008.008.023.008.047 0l3.201-2.322 3.208 2.322c.008.008.016.008.023.008.024 0 .04-.016.04-.039 0-.008 0-.016-.008-.023l-1.225-3.757 3.209-2.322c.016-.016.023-.031.016-.047-.008-.023-.016-.031-.039-.031h-3.954l-1.231-3.766c-.008-.031-.063-.031-.078 0l-1.224 3.766h-3.961c-.023 0-.031.008-.039.031 0 .016 0 .031.016.047z"/><path d="m103.981 62.551-1.224 3.773c0 .008 0 .031.016.039.008.008.031.008.047 0l3.201-2.322 3.208 2.322c.008.008.016.008.031.008.016.008.031-.016.031-.039 0-.008 0-.016-.008-.023l-1.216-3.757 3.201-2.322c.023-.016.023-.031.023-.047-.016-.023-.023-.031-.04-.031h-3.969l-1.224-3.766c-.008-.031-.063-.031-.07 0l-1.232 3.766h-3.961c-.016 0-.023.008-.039.031-.008.016 0 .031.023.047z"/><path d="m126.464 62.551-1.231 3.773c0 .008 0 .031.016.039s.031.008.047 0l3.208-2.322 3.201 2.322c.008.008.023.008.031.008.016 0 .039-.016.039-.039 0-.008 0-.016-.008-.023l-1.224-3.757 3.208-2.322c.016-.016.016-.031.016-.047-.008-.023-.016-.031-.039-.031h-3.961l-1.224-3.766c-.017-.031-.071-.031-.079 0l-1.231 3.766h-3.961c-.016 0-.024.008-.032.031-.016.016 0 .031.008.047z"/><path d="m24.094 75.957c-.008.008 0 .024.008.047.023.008.039.008.047 0l3.208-2.338 3.201 2.338h.031c.031 0 .039-.023.039-.04 0-.008 0-.016 0-.016l-1.231-3.765 3.208-2.322c.016-.023.016-.039.016-.039-.008-.031-.016-.039-.039-.039h-3.961l-1.224-3.773c-.016-.023-.071-.023-.079 0l-1.216 3.773h-3.977c-.008 0-.024.008-.032.031 0 0 0 .023.016.047l3.208 2.322z"/><path d="m46.56 75.957c0 .008.008.024.024.047.008.008.031.008.047 0l3.2-2.338 3.208 2.338h.024c.023 0 .039-.023.039-.04 0-.008 0-.016-.008-.016l-1.224-3.765 3.208-2.322c.016-.023.031-.039.016-.047-.008-.023-.016-.031-.039-.031h-3.954l-1.23-3.773c-.008-.023-.063-.023-.079 0l-1.216 3.773h-3.969c-.023 0-.031.008-.039.031 0 0 0 .023.016.047l3.208 2.322z"/><path d="m69.043 75.957c0 .008 0 .024.016.047.008.008.031.008.047 0l3.201-2.338 3.208 2.338h.031c.016 0 .031-.023.031-.04 0-.008 0-.016-.008-.016l-1.216-3.765 3.201-2.322c.023-.023.031-.039.023-.047-.016-.023-.023-.031-.039-.031h-3.962l-1.231-3.773c-.008-.023-.063-.023-.07 0l-1.231 3.773h-3.963c-.016 0-.023.008-.039.031 0 0 0 .023.023.047l3.201 2.322z"/><path d="m91.517 75.957c0 .008.008.024.016.047.016.008.031.008.047 0l3.209-2.338 3.2 2.338h.023.008c.016 0 .039-.023.039-.04 0-.008 0-.016-.008-.016l-1.224-3.765 3.209-2.322c.016-.023.016-.039.016-.039-.008-.031-.016-.039-.04-.039h-3.961l-1.224-3.773c-.016-.023-.07-.023-.078 0l-1.231 3.773h-3.962c-.016 0-.023.008-.031.031 0 0 0 .023.016.047l3.208 2.322z"/><path d="m113.991 75.957c0 .008 0 .024.023.047.008.008.023.008.047 0l3.2-2.338 3.209 2.338h.023c.023 0 .039-.023.039-.04 0-.008 0-.016-.008-.016l-1.224-3.765 3.208-2.322c.016-.023.016-.039.016-.039-.008-.031-.016-.039-.039-.039h-3.969l-1.216-3.773c-.008-.023-.063-.023-.079 0l-1.224 3.773h-3.961c-.023 0-.032.008-.04.031-.008.008 0 .023.017.047l3.208 2.322z"/><path d="m12.853 85.59c-.008.016 0 .039.016.047s.031.008.047 0l3.201-2.337 3.216 2.337h.016c.031 0 .04-.008.04-.039v-.016l-1.232-3.766 3.216-2.322c.008-.016.016-.031.008-.047-.008-.023-.016-.031-.039-.031h-3.954l-1.231-3.773c-.008-.024-.063-.024-.079 0l-1.216 3.773h-3.961c-.016 0-.039.008-.047.031 0 .016.008.032.016.047l3.208 2.322z"/><path d="m35.327 85.59c0 .016.008.039.016.047.016.008.039.008.047 0l3.208-2.337 3.201 2.337h.031c.016 0 .031-.008.031-.039v-.016l-1.224-3.766 3.2-2.322c.024-.016.032-.031.024-.047-.016-.023-.024-.031-.04-.031h-3.96l-1.232-3.773c-.008-.024-.063-.024-.071 0l-1.231 3.773h-3.961c-.008 0-.023.008-.039.031 0 .016 0 .032.023.047l3.201 2.322z"/><path d="m57.801 85.59c0 .016 0 .039.016.047s.04.008.047 0l3.208-2.337 3.201 2.337h.031c.016 0 .04-.008.04-.039v-.016l-1.232-3.766 3.208-2.322c.016-.016.023-.031.016-.047-.008-.023-.016-.031-.039-.031h-3.961l-1.224-3.773c-.016-.024-.071-.024-.079 0l-1.231 3.773h-3.961c-.016 0-.024.008-.032.031 0 .016 0 .032.016.047l3.208 2.322z"/><path d="m80.275 85.59c0 .016.008.039.024.047.008.008.023.008.047 0l3.201-2.337 3.208 2.337h.023c.024 0 .04-.008.04-.039 0 0 0-.016-.008-.016l-1.225-3.766 3.209-2.322c.016-.016.023-.031.016-.047-.008-.023-.016-.031-.039-.031h-3.954l-1.231-3.773c-.008-.024-.063-.024-.078 0l-1.224 3.773h-3.961c-.023 0-.031.008-.039.031 0 .016 0 .032.016.047l3.208 2.322z"/><path d="m102.758 85.59c0 .016 0 .039.016.047.008.008.031.008.047 0l3.201-2.337 3.208 2.337h.031c.016 0 .031-.008.031-.039 0 0 0-.016-.008-.016l-1.216-3.766 3.201-2.322c.023-.016.023-.031.023-.047-.016-.023-.023-.031-.04-.031h-3.969l-1.224-3.773c-.008-.024-.063-.024-.07 0l-1.232 3.773h-3.961c-.016 0-.023.008-.039.031-.008.016 0 .032.023.047l3.2 2.322z"/><path d="m125.232 85.59c0 .016 0 .039.016.047s.031.008.047 0l3.208-2.337 3.201 2.337h.031c.016 0 .039-.008.039-.039 0 0 0-.016-.008-.016l-1.224-3.766 3.208-2.322c.016-.016.016-.031.016-.047-.008-.023-.016-.031-.039-.031h-3.961l-1.224-3.773c-.017-.024-.071-.024-.079 0l-1.231 3.773h-3.961c-.016 0-.024.008-.032.031-.016.016 0 .032.008.047l3.217 2.322z"/><path d="m27.679 85.315c-.023-.039-.071-.039-.086 0l-1.216 3.773h-3.961c-.023 0-.039.008-.039.008-.008.023 0 .047.008.055l3.208 2.338-1.224 3.757c-.008.023 0 .039.008.047.023.008.039.008.047 0l3.208-2.322 3.208 2.322c.016.008.016.008.023.008.016 0 .047-.016.047-.032s-.008-.023-.008-.031l-1.224-3.75 3.208-2.338c.008-.008.016-.031.008-.047 0 0-.023-.016-.039-.016h-3.961z"/><path d="m50.153 85.315c-.016-.039-.063-.039-.086 0l-1.216 3.773h-3.961c-.016 0-.039.008-.039.008-.008.023 0 .047.008.055l3.208 2.338-1.224 3.757c-.008.023 0 .039.016.047.008.008.016.008.023.008h.023l3.201-2.33 3.216 2.322s.008.008.016.008c.031 0 .047-.016.047-.032s-.008-.023-.008-.031l-1.216-3.75 3.201-2.338c.008-.008.016-.031.008-.047 0 0-.016-.016-.04-.016h-3.953z"/><path d="m70.541 91.489-1.216 3.757c-.008.023 0 .039.008.047.016.008.04.008.047 0l3.2-2.322 3.216 2.322s.008.008.023.008c.024 0 .047-.016.047-.032s-.016-.023-.016-.031l-1.216-3.75 3.2-2.338c.016-.008.023-.031.016-.047 0 0-.023-.016-.039-.016h-3.96l-1.232-3.773c-.008-.039-.063-.039-.07 0l-1.224 3.773h-3.961c-.016 0-.04.008-.04.008-.008.023 0 .047.016.055z"/><path d="m93.015 91.489-1.216 3.757c-.008.023 0 .039.008.047.023.008.039.008.047 0l3.209-2.322 3.208 2.322s.016.008.023.008c.024 0 .04-.016.04-.032s0-.023 0-.031l-1.232-3.75 3.217-2.338c.008-.008.016-.031.008-.047-.008-.008-.023-.016-.039-.016h-3.962l-1.224-3.773c-.016-.039-.07-.039-.078 0l-1.224 3.773h-3.97c-.008 0-.023.008-.023.008-.008.023 0 .047.008.055z"/><path d="m117.576 85.315c-.008-.039-.07-.039-.078 0l-1.217 3.773h-3.961c-.016 0-.039.008-.047.016 0 .016.008.039.016.047l3.208 2.338-1.224 3.757c-.008.023 0 .039.016.047.008.008.016.008.023.008 0 0 .008 0 .023-.008l3.201-2.322 3.216 2.322.016.008c.023 0 .039-.016.039-.032s0-.023 0-.031l-1.231-3.75 3.217-2.338c.008-.008.016-.031.008-.047-.008-.008-.016-.016-.04-.016h-3.953z"/><path d="m16.492 94.87c-.008-.039-.063-.039-.07 0l-1.224 3.765h-3.969c-.008 0-.024.008-.024.024-.016.023 0 .039.008.047l3.201 2.33-1.216 3.766c-.008.023 0 .039.008.047.016.016.04.016.047 0l3.208-2.33 3.201 2.33h.031c.024 0 .032-.008.032-.031 0-.016 0-.023 0-.023l-1.224-3.76 3.208-2.33c.016-.008.023-.023.016-.047 0-.016-.023-.024-.039-.024h-3.961z"/><path d="m38.975 94.87c-.016-.039-.07-.039-.079 0l-1.216 3.765h-3.969c-.016 0-.031.008-.039.024 0 .023 0 .039.016.047l3.208 2.33-1.224 3.766c-.008.023 0 .039.008.047.024.016.04.016.047 0l3.208-2.33 3.2 2.33h.032c.016 0 .039-.008.039-.031 0-.016 0-.023 0-.023l-1.231-3.758 3.216-2.33c.008-.008.016-.023.008-.047-.008-.016-.016-.024-.04-.024h-3.961z"/><path d="m61.449 94.87c-.008-.039-.063-.039-.079 0l-1.216 3.765h-3.969s-.032.008-.04.024c0 .023 0 .039.016.047l3.208 2.33-1.224 3.766c-.008.023 0 .039.016.047.016.016.023.016.047 0l3.201-2.33 3.208 2.33h.023c.023 0 .039-.008.039-.031 0-.016 0-.023 0-.023l-1.231-3.758 3.208-2.33c.016-.008.031-.023.016-.047-.008-.016-.016-.024-.031-.024h-3.96z"/><path d="m83.924 94.87c-.009-.039-.063-.039-.071 0l-1.231 3.765h-3.961c-.008 0-.023.008-.039.024 0 .023 0 .039.023.047l3.201 2.33-1.224 3.766c0 .023 0 .039.016.047.016.016.039.016.047 0l3.208-2.33 3.201 2.33h.031c.016 0 .031-.008.031-.031 0-.016 0-.023 0-.023l-1.224-3.758 3.2-2.33c.023-.008.023-.023.023-.047-.016-.016-.023-.024-.039-.024h-3.961z"/><path d="m106.405 94.87c-.016-.039-.07-.039-.078 0l-1.231 3.765h-3.954c-.023 0-.031.008-.039.024 0 .023 0 .039.016.047l3.208 2.33-1.231 3.766c0 .023 0 .039.017.047.016.016.031.016.047 0l3.208-2.33 3.2 2.33h.031c.017 0 .04-.008.04-.031 0-.016 0-.023-.008-.023l-1.224-3.758 3.208-2.33c.016-.008.016-.023.016-.047-.008-.016-.016-.024-.039-.024h-3.962z"/><path d="m128.88 94.87c-.008-.039-.063-.039-.078 0l-1.224 3.765h-3.962c-.023 0-.031.008-.039.024 0 .023 0 .039.016.047l3.208 2.33-1.231 3.766c0 .023 0 .039.023.047.008.016.023.016.047 0l3.201-2.33 3.208 2.33h.023c.023 0 .039-.008.039-.031 0-.016 0-.023-.008-.023l-1.224-3.758 3.209-2.33c.016-.008.016-.023.016-.047-.008-.016-.023-.024-.032-.024h-3.961z"/><path d="m17.936 117.595-1.224-3.766c-.016-.039-.063-.039-.078 0l-1.224 3.766h-3.962c-.023 0-.039.008-.039.023-.008.023 0 .039.008.047l3.208 2.33-1.224 3.765c-.008.023 0 .031.016.055h.023s.023 0 .023 0l3.208-2.337 3.208 2.337h.016s0 0 .008 0c.023 0 .039-.023.039-.039s-.008-.023-.008-.023l-1.216-3.757 3.201-2.33c.008-.008.016-.023.008-.047 0-.016-.016-.023-.039-.023z"/><path d="m40.41 117.595-1.224-3.766c-.016-.039-.063-.039-.079 0l-1.224 3.766h-3.961c-.016 0-.039.008-.039.023-.008.023 0 .039.016.047l3.2 2.33-1.216 3.765c-.016.023 0 .031.008.055.016.008.04.008.047 0l3.216-2.337 3.2 2.337h.016c.031 0 .047-.023.047-.039s-.008-.023-.008-.023l-1.216-3.757 3.201-2.33c.016-.008.024-.023.016-.047 0-.016-.023-.023-.039-.023z"/><path d="m62.885 117.595-1.224-3.765c-.016-.039-.063-.039-.079 0l-1.224 3.766h-3.953c-.024 0-.04.008-.04.023-.008.023 0 .039.008.047l3.201 2.33-1.216 3.765c-.008.023 0 .031.008.055.023.008.039.008.047 0l3.208-2.337 3.208 2.337h.023c.023 0 .047-.023.047-.039s-.008-.023-.008-.023l-1.224-3.757 3.208-2.33s.016-.023.008-.047c0-.016-.024-.023-.04-.023h-3.958z"/><path d="m85.358 117.595-1.224-3.766c-.008-.039-.055-.039-.078 0l-1.216 3.766h-3.961c-.024 0-.04.008-.04.023-.008.023 0 .039.008.047l3.208 2.33-1.224 3.765c-.008.023 0 .031.016.055.016.008.032.008.047 0l3.2-2.337 3.217 2.337h.016c.031 0 .047-.023.047-.039s-.008-.023-.008-.023l-1.216-3.757 3.2-2.33c.008-.008.016-.023.008-.047 0-.016-.016-.023-.039-.023z"/><path d="m107.841 117.595-1.231-3.766c-.008-.039-.055-.039-.07 0l-1.224 3.766h-3.962c-.016 0-.039.008-.039.023-.008.023 0 .039.016.047l3.2 2.33-1.216 3.765c-.016.023 0 .031.008.055.016.008.039.008.047 0l3.201-2.337 3.216 2.337h.016c.032 0 .04-.023.04-.039s0-.023 0-.023l-1.225-3.757 3.209-2.33c.016-.008.023-.023.016-.047 0-.016-.023-.023-.039-.023z"/><path d="m134.276 117.595h-3.961l-1.224-3.766c-.016-.039-.07-.039-.078 0l-1.225 3.766h-3.969c-.008 0-.023.008-.031.023 0 .023 0 .039.016.047l3.2 2.33-1.216 3.765c-.008.023 0 .031.008.055.023.008.039.008.047 0l3.209-2.337 3.2 2.337h.031c.023 0 .039-.023.039-.039s0-.023 0-.023l-1.231-3.757 3.217-2.33c.008-.008.016-.023.008-.047 0-.016-.023-.024-.04-.024z"/><path d="m17.661 136.783-1.224-3.773c-.016-.031-.063-.031-.07 0l-1.232 3.773h-3.961c-.016 0-.039.008-.039.023-.008.008 0 .031.008.039l3.208 2.338-1.224 3.765c-.008.017 0 .031.016.039.016.017.032.017.055 0l3.201-2.322 3.208 2.322c.008.017.008.017.016.017h.008c.023 0 .039-.023.039-.039 0-.017-.008-.023-.008-.031l-1.216-3.75 3.201-2.338c.008-.008.016-.031.008-.039 0-.016-.016-.023-.04-.023h-3.954z"/><path d="m40.136 136.783-1.224-3.773c-.016-.031-.063-.031-.079 0l-1.224 3.773h-3.961c-.016 0-.04.008-.04.023-.008.008 0 .031.016.039l3.2 2.338-1.216 3.765c-.008.017 0 .031.008.039.016.017.039.017.047 0l3.201-2.322 3.216 2.322c0 .017.008.017.023.017.023 0 .047-.023.047-.039 0-.017-.016-.023-.016-.031l-1.216-3.75 3.201-2.338c.016-.008.023-.031.016-.039 0-.016-.023-.023-.039-.023h-3.96z"/><path d="m62.61 136.783-1.216-3.773c-.023-.031-.079-.031-.086 0l-1.216 3.773h-3.961c-.023 0-.039.008-.039.023-.008.008 0 .031.008.039l3.201 2.338-1.216 3.765c-.008.017 0 .031.008.039.023.017.039.017.047 0l3.208-2.322 3.208 2.322c0 .017.016.017.024.017.023 0 .047-.023.047-.039 0-.017-.008-.023-.008-.031l-1.231-3.75 3.216-2.338c.008-.008.016-.031.008-.039 0-.016-.023-.023-.039-.023h-3.963z"/><path d="m85.092 136.783-1.231-3.773c-.008-.031-.07-.031-.078 0l-1.216 3.773h-3.962c-.016 0-.039.008-.047.023 0 0 .008.031.016.039l3.208 2.338-1.224 3.765c-.008.017 0 .031.016.039.016.017.031.017.047 0l3.201-2.322 3.216 2.322c0 .017.008.017.016.017.032 0 .04-.023.04-.039 0-.017 0-.023 0-.031l-1.216-3.75 3.2-2.338c.008-.008.016-.031.008-.039 0-.016-.016-.023-.039-.023h-3.955z"/><path d="m107.566 136.783-1.231-3.773c-.008-.031-.063-.031-.07 0l-1.224 3.773h-3.97c-.008 0-.031.008-.039.023 0 0 0 .031.023.039l3.2 2.338-1.216 3.765c-.008.017 0 .031.008.039.016.017.039.017.047 0l3.201-2.322 3.216 2.322c0 .017.008.017.023.017.023 0 .031-.023.031-.039 0-.017 0-.023 0-.031l-1.224-3.75 3.201-2.338c.023-.008.031-.031.023-.039-.016-.016-.023-.023-.04-.023h-3.959z"/><path d="m130.041 136.783-1.224-3.773c-.016-.031-.071-.031-.079 0l-1.224 3.773h-3.969c-.008 0-.024.008-.032.023 0 0 0 .031.017.039l3.2 2.338-1.216 3.765c-.008.017 0 .031.008.039.023.017.039.017.047 0l3.208-2.322 3.201 2.322c.008.017.023.017.031.017.016 0 .039-.023.039-.039 0-.017 0-.023 0-.031l-1.231-3.75 3.216-2.338c.008-.008.016-.031.008-.039-.008-.016-.023-.023-.039-.023h-3.961z"/><path d="m28.965 108.017-1.224-3.773c-.016-.023-.063-.023-.086 0l-1.216 3.773h-3.962c-.016 0-.039.008-.039.031-.008.016 0 .031.008.047l3.208 2.322-1.223 3.773c-.008.016 0 .039.016.047s.039.008.047 0l3.208-2.338 3.208 2.338h.016c.031 0 .047-.008.047-.04l-.008-.016-1.216-3.765 3.201-2.322c.008-.016.023-.031.008-.047 0-.023-.016-.031-.031-.031z"/><path d="m51.439 108.017-1.216-3.773c-.023-.023-.071-.023-.079 0l-1.231 3.773h-3.961c-.016 0-.031.008-.031.031-.016.016 0 .031.008.047l3.2 2.322-1.216 3.773c-.008.016 0 .039.008.047.016.008.039.008.039.008l3.225-2.346 3.2 2.338h.023c.023 0 .047-.008.047-.04l-.016-.016-1.216-3.765 3.201-2.322c.016-.016.024-.031.016-.047 0-.023-.023-.031-.039-.031z"/><path d="m73.914 108.017-1.224-3.773c-.016-.023-.063-.023-.079 0l-1.216 3.773h-3.961c-.023 0-.039.008-.039.031-.008.016 0 .031.008.047l3.208 2.322-1.224 3.773c-.008.016 0 .039.008.047.023.008.039.008.047 0l3.216-2.338 3.208 2.338h.016c.031 0 .047-.008.047-.04l-.008-.016-1.224-3.765 3.208-2.322c.008-.016.016-.031.008-.047 0-.023-.016-.031-.04-.031z"/><path d="m96.397 108.017-1.232-3.773c-.008-.023-.063-.023-.078 0l-1.216 3.773h-3.962c-.016 0-.039.008-.047.031 0 .016.008.031.016.047l3.209 2.322-1.226 3.773c-.008.016 0 .039.017.047.016.008.039.008.047 0l3.2-2.338 3.217 2.338h.016c.031 0 .047-.008.047-.04l-.008-.016-1.216-3.765 3.2-2.322c.008-.016.023-.031.008-.047 0-.023-.016-.031-.031-.031z"/><path d="m118.87 108.017-1.231-3.773c-.008-.023-.063-.023-.07 0l-1.224 3.773h-3.97c-.008 0-.023.008-.039.031 0 .016.016.031.023.047l3.2 2.322-1.216 3.773c-.008.016 0 .039.008.047.016.008.039.008.047 0l3.209-2.338 3.2 2.338h.031c.024 0 .048-.008.048-.04l-.016-.016-1.217-3.765 3.201-2.322c.016-.016.023-.031.016-.047 0-.023-.023-.031-.039-.031z"/><path d="m28.895 127.165-1.216-3.757c-.023-.039-.071-.039-.086 0l-1.216 3.757h-3.961c-.023 0-.039.024-.039.032-.008.016 0 .039.008.047l3.208 2.33-1.224 3.766c-.008.016 0 .039.008.047.023.008.039.008.047 0l3.208-2.337 3.208 2.337c.016.008.016.008.023.008.016 0 .047-.016.047-.039 0-.008-.008-.016-.008-.023l-1.224-3.758 3.208-2.33c.008-.008.016-.031.008-.047 0-.008-.023-.032-.039-.032z"/><path d="m51.377 127.165-1.224-3.757c-.016-.039-.063-.039-.086 0l-1.216 3.757h-3.961c-.016 0-.039.024-.039.032-.008.016 0 .039.008.047l3.208 2.33-1.224 3.766c-.008.016 0 .039.016.047s.031.008.047 0l3.201-2.337 3.216 2.337s.008.008.016.008c.031 0 .047-.016.047-.039 0-.008-.008-.016-.008-.023l-1.216-3.758 3.201-2.33c.008-.008.016-.031.008-.047 0-.008-.016-.032-.04-.032z"/><path d="m73.851 127.165-1.232-3.757c-.008-.039-.055-.039-.07 0l-1.224 3.757h-3.961c-.016 0-.04.024-.04.032-.008.016 0 .039.016.047l3.201 2.33-1.216 3.766c-.008.016 0 .039.008.047.016.008.04.008.047 0l3.2-2.337 3.216 2.337s.008.008.023.008c.024 0 .047-.016.047-.039 0-.008-.016-.016-.016-.023l-1.216-3.758 3.2-2.33c.016-.008.023-.031.016-.047 0-.008-.023-.032-.039-.032z"/><path d="m96.325 127.165-1.224-3.757c-.016-.039-.063-.039-.078 0l-1.224 3.757h-3.954c-.023 0-.039.024-.039.032-.008.016 0 .039.008.047l3.2 2.33-1.216 3.766c-.008.016 0 .039.008.047.023.008.039.008.047 0l3.209-2.337 3.208 2.337s.016.008.023.008c.024 0 .04-.016.04-.039 0-.008 0-.016 0-.023l-1.225-3.758 3.209-2.33c.008-.008.016-.031.008-.047 0-.008-.023-.032-.039-.032z"/><path d="m118.808 127.165-1.231-3.757c-.008-.039-.07-.039-.078 0l-1.217 3.757h-3.961c-.016 0-.039.024-.047.032 0 .016.008.039.016.047l3.208 2.33-1.224 3.766c-.008.016 0 .039.016.047s.031.008.047 0l3.201-2.337 3.216 2.337.016.008c.023 0 .039-.016.039-.039 0-.008 0-.016 0-.023l-1.231-3.758 3.217-2.33c.008-.008.016-.031.008-.047-.008-.008-.016-.032-.04-.032z"/></g></g></g></svg>